<svg xmlns="http://www.w3.org/2000/svg" width="512" height="512" viewBox="0 0 128 128" fill="none">
  <rect width="128" height="128" rx="24" fill="#000000"/>
  <path d="M88 40H74.4C73.0667 35.04 68.56 32 64 32C59.44 32 54.9333 35.04 53.6 40H40C37.36 40 35.2 42.16 35.2 44.8V91.2C35.2 93.84 37.36 96 40 96H88C90.64 96 92.8 93.84 92.8 91.2V44.8C92.8 42.16 90.64 40 88 40ZM64 40C65.32 40 66.4 41.08 66.4 42.4C66.4 43.72 65.32 44.8 64 44.8C62.68 44.8 61.6 43.72 61.6 42.4C61.6 41.08 62.68 40 64 40ZM72 80H48V72H72V80ZM80 64H48V56H80V64Z" fill="white"/>
</svg>
